{
  "accessors": [
    {
      "bufferView": 2,
      "componentType": 5126,
      "count": 65532,
      "max": [
        0.17600339651107788,
        0.1420920044183731,
        0.4250636100769043
      ],
      "min": [
        -0.1760399043560028,
        -0.06978490203619003,
        0.011657300405204296
      ],
      "type": "VEC3"
    },
    {
      "bufferView": 2,
      "byteOffset": 786384,
      "componentType": 5126,
      "count": 65532,
      "max": [
        0.9999992847442627,
        0.9999997615814209,
        1.0
      ],
      "min": [
        -0.9999992847442627,
        -0.9999983310699463,
        -1.0
      ],
      "type": "VEC3"
    },
    {
      "bufferView": 1,
      "componentType": 5126,
      "count": 65532,
      "max": [
        0.0038759999442845583,
        0.49000000953674316
      ],
      "min": [
        0.0038759999442845583,
        0.49000000953674316
      ],
      "type": "VEC2"
    },
    {
      "bufferView": 0,
      "componentType": 5125,
      "count": 264255,
      "type": "SCALAR"
    },
    {
      "bufferView": 2,
      "byteOffset": 1572768,
      "componentType": 5126,
      "count": 65532,
      "max": [
        0.21028189361095428,
        0.17621280252933502,
        0.43686819076538086
      ],
      "min": [
        -0.21037180721759796,
        -0.06989379972219467,
        -0.0002440999960526824
      ],
      "type": "VEC3"
    },
    {
      "bufferView": 2,
      "byteOffset": 2359152,
      "componentType": 5126,
      "count": 65532,
      "max": [
        1.0,
        0.9999982714653015,
        1.0
      ],
      "min": [
        -1.0,
        -0.9999986290931702,
        -1.0
      ],
      "type": "VEC3"
    },
    {
      "bufferView": 1,
      "byteOffset": 524256,
      "componentType": 5126,
      "count": 65532,
      "max": [
        0.0038759999442845583,
        0.49000000953674316
      ],
      "min": [
        0.0038759999442845583,
        0.49000000953674316
      ],
      "type": "VEC2"
    },
    {
      "bufferView": 0,
      "byteOffset": 1057020,
      "componentType": 5125,
      "count": 279396,
      "type": "SCALAR"
    },
    {
      "bufferView": 2,
      "byteOffset": 3145536,
      "componentType": 5126,
      "count": 63678,
      "max": [
        0.17168210446834564,
        0.1735232025384903,
        0.4365338087081909
      ],
      "min": [
        -0.20859310030937195,
        -0.06970760226249695,
        -0.00024059999850578606
      ],
      "type": "VEC3"
    },
    {
      "bufferView": 2,
      "byteOffset": 3909672,
      "componentType": 5126,
      "count": 63678,
      "max": [
        0.9999992847442627,
        0.9999982118606567,
        1.0
      ],
      "min": [
        -0.9999953508377075,
        -0.9999983310699463,
        -1.0
      ],
      "type": "VEC3"
    },
    {
      "bufferView": 1,
      "byteOffset": 1048512,
      "componentType": 5126,
      "count": 63678,
      "max": [
        0.0038759999442845583,
        0.49000000953674316
      ],
      "min": [
        0.0038759999442845583,
        0.49000000953674316
      ],
      "type": "VEC2"
    },
    {
      "bufferView": 0,
      "byteOffset": 2174604,
      "componentType": 5125,
      "count": 281892,
      "type": "SCALAR"
    }
  ],
  "asset": {
    "extras": {
      "author": "rorlandoc (https://sketchfab.com/rorlandoc)",
      "license": "CC-BY-4.0 (http://creativecommons.org/licenses/by/4.0/)",
      "source": "https://sketchfab.com/3d-models/mastu-half-8b2c2905e8ad4cd480dc340b60064984",
      "title": "Mastu_half"
    },
    "generator": "Sketchfab-16.72.0",
    "version": "2.0"
  },
  "bufferViews": [
    {
      "buffer": 0,
      "byteLength": 3302172,
      "name": "floatBufferViews",
      "target": 34963
    },
    {
      "buffer": 0,
      "byteLength": 1557936,
      "byteOffset": 3302172,
      "byteStride": 8,
      "name": "floatBufferViews",
      "target": 34962
    },
    {
      "buffer": 0,
      "byteLength": 4673808,
      "byteOffset": 4860108,
      "byteStride": 12,
      "name": "floatBufferViews",
      "target": 34962
    }
  ],
  "buffers": [
    {
      "byteLength": 9533916,
      "uri": "scene.bin"
    }
  ],
  "materials": [
    {
      "doubleSided": true,
      "name": "material_0",
      "pbrMetallicRoughness": {
        "baseColorFactor": [
          0.5469729369111547,
          0.5469729369111547,
          0.5469729369111547,
          1.0
        ],
        "metallicFactor": 0.7847642964245224,
        "roughnessFactor": 0.08380977922980336
      }
    }
  ],
  "meshes": [
    {
      "name": "Object_0",
      "primitives": [
        {
          "attributes": {
            "NORMAL": 1,
            "POSITION": 0,
            "TEXCOORD_0": 2
          },
          "indices": 3,
          "material": 0,
          "mode": 4
        }
      ]
    },
    {
      "name": "Object_1",
      "primitives": [
        {
          "attributes": {
            "NORMAL": 5,
            "POSITION": 4,
            "TEXCOORD_0": 6
          },
          "indices": 7,
          "material": 0,
          "mode": 4
        }
      ]
    },
    {
      "name": "Object_2",
      "primitives": [
        {
          "attributes": {
            "NORMAL": 9,
            "POSITION": 8,
            "TEXCOORD_0": 10
          },
          "indices": 11,
          "material": 0,
          "mode": 4
        }
      ]
    }
  ],
  "nodes": [
    {
      "children": [
        1
      ],
      "matrix": [
        1.0,
        0.0,
        0.0,
        0.0,
        0.0,
        2.220446049250313e-16,
        -1.0,
        0.0,
        0.0,
        1.0,
        2.220446049250313e-16,
        0.0,
        0.0,
        0.0,
        0.0,
        1.0
      ],
      "name": "Sketchfab_model"
    },
    {
      "children": [
        2,
        3,
        4
      ],
      "name": "mastu_half.obj.cleaner.materialmerger.gles"
    },
    {
      "mesh": 0,
      "name": "Object_2"
    },
    {
      "mesh": 1,
      "name": "Object_3"
    },
    {
      "mesh": 2,
      "name": "Object_4"
    }
  ],
  "scene": 0,
  "scenes": [
    {
      "name": "Sketchfab_Scene",
      "nodes": [
        0
      ]
    }
  ]
}
